<?xml version="1.0" encoding="utf-8"?>
<!-- Generator: Adobe Illustrator 21.0.0, SVG Export Plug-In . SVG Version: 6.00 Build 0)  -->
<svg version="1.1" id="Layer_1" xmlns="http://www.w3.org/2000/svg" xmlns:xlink="http://www.w3.org/1999/xlink" x="0px" y="0px"
	 viewBox="0 0 36 59.3" style="enable-background:new 0 0 36 59.3;" xml:space="preserve">
<style type="text/css">
	.st0{fill:#6E91B6;}
</style>
<g>
	<path class="st0" d="M18,59.3c-0.4,0-0.7-0.3-0.7-0.7V2.5L1.2,19.6c-0.3,0.3-0.7,0.3-1,0s-0.3-0.7,0-1L17.5,0.2
		C17.7,0,18-0.1,18.3,0s0.4,0.4,0.4,0.7v57.9C18.7,58.9,18.4,59.3,18,59.3z"/>
</g>
<g>
	<path class="st0" d="M35.3,19.8c-0.2,0-0.4-0.1-0.5-0.2L27,11.2c-0.3-0.3-0.2-0.7,0-1c0.3-0.3,0.7-0.2,1,0l7.8,8.4
		c0.3,0.3,0.2,0.7,0,1C35.6,19.7,35.5,19.8,35.3,19.8z"/>
</g>
</svg>
