<svg xmlns="http://www.w3.org/2000/svg" width="61" height="65" viewBox="0 0 61 65">
  <title>
    pointinghand
  </title>
  <g fill="none" fill-rule="evenodd">
    <path fill="#FFF" d="M13.326,49.5196 C12.19,48.0836 10.81,45.1476 8.354,41.5836 C6.962,39.5676 3.51,35.7716 2.482,33.8436 C1.59,32.1396 1.686,31.3756 1.898,29.9636 C2.274,27.4516 4.85,25.4956 7.598,25.7596 C9.674,25.9556 11.434,27.3276 13.018,28.6236 C13.974,29.4036 15.15,30.9196 15.858,31.7756 C16.51,32.5596 16.67,32.8836 17.366,33.8116 C18.286,35.0396 18.574,35.6476 18.222,34.2956 C17.938,32.3116 17.474,28.9236 16.802,25.9276 C16.29,23.6556 16.166,23.2996 15.678,21.5556 C15.162,19.6996 14.898,18.3996 14.414,16.4316 C14.078,15.0396 13.474,12.1956 13.31,10.5956 C13.082,8.4076 12.962,4.8396 14.366,3.1996 C15.466,1.9156 17.99,1.5276 19.554,2.3196 C21.602,3.3556 22.766,6.3316 23.298,7.5196 C24.254,9.6556 24.846,12.1236 25.362,15.3636 C26.018,19.4876 27.226,25.2116 27.266,26.4156 C27.362,24.9396 26.994,21.8316 27.25,20.4156 C27.482,19.1316 28.562,17.6396 29.914,17.2356 C31.058,16.8956 32.398,16.7716 33.578,17.0156 C34.83,17.2716 36.15,18.1676 36.642,19.0116 C38.09,21.5076 38.118,26.6076 38.178,26.3356 C38.522,24.8316 38.462,21.4196 39.314,19.9996 C39.874,19.0636 41.302,18.2196 42.062,18.0836 C43.238,17.8756 44.682,17.8116 45.918,18.0516 C46.914,18.2476 48.262,19.4316 48.626,19.9996 C49.498,21.3756 49.994,25.2676 50.142,26.6316 C50.202,27.1956 50.438,25.0636 51.314,23.6876 C52.938,21.1316 58.686,20.6356 58.906,26.2436 C59.006,28.8596 58.986,28.7396 58.986,30.4996 C58.986,32.5676 58.938,33.8116 58.826,35.3076 C58.702,36.9076 58.358,40.5236 57.858,42.2756 C57.514,43.4796 56.374,46.1876 55.25,47.8116 C55.25,47.8116 50.954,52.8116 50.486,55.0636 C50.014,57.3116 50.17,57.3276 50.078,58.9236 C49.986,60.5156 50.562,62.6116 50.562,62.6116 C50.562,62.6116 47.354,63.0276 45.626,62.7516 C44.062,62.4996 42.126,59.3876 41.626,58.4356 C40.938,57.1236 39.47,57.3756 38.898,58.3436 C37.998,59.8756 36.062,62.6236 34.694,62.7956 C32.022,63.1316 26.478,62.9196 22.138,62.8756 C22.138,62.8756 22.878,58.8316 21.23,57.4436 C20.01,56.4076 17.91,54.3076 16.654,53.2036 L13.326,49.5196 Z"/>
    <path stroke="#000" stroke-linecap="round" stroke-linejoin="round" stroke-width="3" d="M13.326,49.5196 C12.19,48.0836 10.81,45.1476 8.354,41.5836 C6.962,39.5676 3.51,35.7716 2.482,33.8436 C1.59,32.1396 1.686,31.3756 1.898,29.9636 C2.274,27.4516 4.85,25.4956 7.598,25.7596 C9.674,25.9556 11.434,27.3276 13.018,28.6236 C13.974,29.4036 15.15,30.9196 15.858,31.7756 C16.51,32.5596 16.67,32.8836 17.366,33.8116 C18.286,35.0396 18.574,35.6476 18.222,34.2956 C17.938,32.3116 17.474,28.9236 16.802,25.9276 C16.29,23.6556 16.166,23.2996 15.678,21.5556 C15.162,19.6996 14.898,18.3996 14.414,16.4316 C14.078,15.0396 13.474,12.1956 13.31,10.5956 C13.082,8.4076 12.962,4.8396 14.366,3.1996 C15.466,1.9156 17.99,1.5276 19.554,2.3196 C21.602,3.3556 22.766,6.3316 23.298,7.5196 C24.254,9.6556 24.846,12.1236 25.362,15.3636 C26.018,19.4876 27.226,25.2116 27.266,26.4156 C27.362,24.9396 26.994,21.8316 27.25,20.4156 C27.482,19.1316 28.562,17.6396 29.914,17.2356 C31.058,16.8956 32.398,16.7716 33.578,17.0156 C34.83,17.2716 36.15,18.1676 36.642,19.0116 C38.09,21.5076 38.118,26.6076 38.178,26.3356 C38.522,24.8316 38.462,21.4196 39.314,19.9996 C39.874,19.0636 41.302,18.2196 42.062,18.0836 C43.238,17.8756 44.682,17.8116 45.918,18.0516 C46.914,18.2476 48.262,19.4316 48.626,19.9996 C49.498,21.3756 49.994,25.2676 50.142,26.6316 C50.202,27.1956 50.438,25.0636 51.314,23.6876 C52.938,21.1316 58.686,20.6356 58.906,26.2436 C59.006,28.8596 58.986,28.7396 58.986,30.4996 C58.986,32.5676 58.938,33.8116 58.826,35.3076 C58.702,36.9076 58.358,40.5236 57.858,42.2756 C57.514,43.4796 56.374,46.1876 55.25,47.8116 C55.25,47.8116 50.954,52.8116 50.486,55.0636 C50.014,57.3116 50.17,57.3276 50.078,58.9236 C49.986,60.5156 50.562,62.6116 50.562,62.6116 C50.562,62.6116 47.354,63.0276 45.626,62.7516 C44.062,62.4996 42.126,59.3876 41.626,58.4356 C40.938,57.1236 39.47,57.3756 38.898,58.3436 C37.998,59.8756 36.062,62.6236 34.694,62.7956 C32.022,63.1316 26.478,62.9196 22.138,62.8756 C22.138,62.8756 22.878,58.8316 21.23,57.4436 C20.01,56.4076 17.91,54.3076 16.654,53.2036 L13.326,49.5196 L13.326,49.5196 Z"/>
    <path stroke="#000" stroke-linecap="round" stroke-width="3" d="M46.266 50.938L46.266 37.102M38.203 50.984L38.139 37.092M30.219 37.219L30.303 50.923"/>
  </g>
</svg>
